<svg width="1647" height="879" viewBox="0 0 1647 879" fill="none" xmlns="http://www.w3.org/2000/svg"><path d="M301.257 564.235L18.917 776.247c-36.459 27.377-16.636 85.407 28.956 85.718l1515.167 4.649c42.3.306 79.08-28.169 79.08-70.473V128.643c0-136.504-184.75-178.789-244.12-55.873l-7.84 16.223c-28.64 59.302-102.02 81.208-158.49 47.316-57.78-34.682-132.88-10.851-160.1 50.803l-84.734 191.967c-27.958 63.336-101.392 92.735-165.332 66.189-43.802-18.184-94.08-10.522-130.477 19.886l-49.112 41.031c-48.382 40.42-114.405 52.534-173.984 31.921-56.448-19.529-118.91-9.737-166.674 26.129z" transform="translate(0 12.384)" fill="url(#a)"/><path fill="#273346" fill-opacity=".15" d="M6.668 772.549h2.858v33.341H6.668z"/><path fill="#C3D3FD" fill-opacity=".5" d="M19.051 782.075h6.668v33.341h-6.668z"/><path fill="#273346" fill-opacity=".15" d="M83.827 712.536h2.858v33.341h-2.858z"/><path fill="#C3D3FD" fill-opacity=".5" d="M96.21 722.062h6.668v33.341H96.21z"/><path fill="#273346" fill-opacity=".15" d="M160.985 656.333h2.858v33.341h-2.858z"/><path fill="#C3D3FD" fill-opacity=".5" d="M173.369 665.859h6.668V699.2h-6.668z"/><path fill="#273346" fill-opacity=".15" d="M238.144 596.32h2.858v33.341h-2.858z"/><path fill="#C3D3FD" fill-opacity=".5" d="M250.527 605.846h6.668v33.341h-6.668z"/><path fill="#273346" fill-opacity=".15" d="M315.302 544.88h2.858v33.341h-2.858z"/><path fill="#C3D3FD" fill-opacity=".5" d="M327.686 554.406h6.668v33.341h-6.668z"/><path fill="#273346" fill-opacity=".15" d="M392.46 524.876h2.858v33.341h-2.858z"/><path fill="#C3D3FD" fill-opacity=".5" d="M404.844 534.402h6.668v33.341h-6.668z"/><path fill="#273346" fill-opacity=".15" d="M469.619 536.307h2.858v33.341h-2.858z"/><path fill="#C3D3FD" fill-opacity=".5" d="M482.002 545.833h6.668v33.341h-6.668z"/><path fill="#273346" fill-opacity=".15" d="M546.777 540.118h2.858v33.341h-2.858z"/><path fill="#C3D3FD" fill-opacity=".5" d="M559.161 549.644h6.668v33.341h-6.668z"/><path fill="#273346" fill-opacity=".15" d="M623.936 506.777h2.858v33.341h-2.858z"/><path fill="#C3D3FD" fill-opacity=".5" d="M636.319 516.303h6.668v33.341h-6.668z"/><path fill="#273346" fill-opacity=".15" d="M701.095 447.716h2.858v33.341h-2.858z"/><path fill="#C3D3FD" fill-opacity=".5" d="M713.479 457.242h6.668v33.341h-6.668z"/><path fill="#273346" fill-opacity=".15" d="M778.253 433.428h2.858v33.341h-2.858z"/><path fill="#C3D3FD" fill-opacity=".5" d="M790.636 442.954h6.668v33.341h-6.668z"/><path fill="#273346" fill-opacity=".15" d="M855.411 450.574h2.858v33.341h-2.858z"/><path fill="#C3D3FD" fill-opacity=".5" d="M867.795 460.1h6.668v33.341h-6.668z"/><path fill="#273346" fill-opacity=".15" d="M932.569 428.665h2.858v33.341h-2.858z"/><path fill="#C3D3FD" fill-opacity=".5" d="M944.953 438.19h6.668v33.341h-6.668z"/><path fill="#273346" fill-opacity=".15" d="M1009.73 301.971h2.858v33.341h-2.858z"/><path fill="#C3D3FD" fill-opacity=".5" d="M1022.11 311.497h6.668v33.341h-6.668z"/><path fill="#273346" fill-opacity=".15" d="M1086.89 141.936h2.858v33.341h-2.858z"/><path fill="#C3D3FD" fill-opacity=".5" d="M1099.27 151.461h6.668v33.341h-6.668z"/><path fill="#273346" fill-opacity=".15" d="M1164.04 114.311h2.858v33.341h-2.858z"/><path fill="#C3D3FD" fill-opacity=".5" d="M1176.43 123.836h6.668v33.341h-6.668z"/><path fill="#273346" fill-opacity=".15" d="M1241.2 140.983h2.858v33.341h-2.858z"/><path fill="#C3D3FD" fill-opacity=".5" d="M1253.59 150.509h6.668v33.341h-6.668z"/><path fill="#273346" fill-opacity=".15" d="M1318.36 137.173h2.858v33.341h-2.858z"/><path fill="#C3D3FD" fill-opacity=".5" d="M1330.75 146.699h6.668v33.341h-6.668z"/><path fill="#273346" fill-opacity=".15" d="M1395.52 55.25h2.858v33.341h-2.858z"/><path fill="#C3D3FD" fill-opacity=".5" d="M1407.9 64.776h6.668v33.34h-6.668z"/><path fill="#273346" fill-opacity=".15" d="M1472.68 0h2.858v33.341h-2.858z"/><path fill="#C3D3FD" fill-opacity=".5" d="M1485.06 9.526h6.668v33.34h-6.668z"/><path fill="#273346" fill-opacity=".15" d="M1549.84 4.763h2.858v33.341h-2.858z"/><path fill="#C3D3FD" fill-opacity=".5" d="M1562.22 14.29h6.668v33.34h-6.668z"/><path fill="#273346" fill-opacity=".15" d="M1627.95 71.444h2.858v33.341h-2.858z"/><path fill="#C3D3FD" fill-opacity=".5" d="M1640.33 80.97h6.668v33.341h-6.668z"/><defs><linearGradient id="a" x2="1" gradientUnits="userSpaceOnUse" gradientTransform="matrix(310.539 -936.712 1583.29 527.408 -73.517 567.34)"><stop stop-color="#9AABF1" stop-opacity=".09"/><stop offset="1" stop-color="#0E299B" stop-opacity=".3"/></linearGradient></defs></svg>